# xmcd
#
# Track frame offsets:
#	150
#	18512
#	40487
#	57977
#	77817
#	98350
#	118595
#	140042
#	156590
#	177115
#
# Disc length: 2629 seconds
#
# Revision: 3
# Processed by: cddbd v1.5.2PL0 Copyright (c) Steve Scherf et al.
# Submitted via: EasyCDDAExtractor 15.3.0.1
#
DISCID=830a430a
DTITLE=Laura Flores - Me Quede Vacia
DYEAR=1997
DGENRE=Latin
TTITLE0=Me Quede Vacia
TTITLE1=Te Lo Adverti
TTITLE2=Me Voy A Reir
TTITLE3=El Alma No Tiene Color
TTITLE4=Primero Dios
TTITLE5=Un Hombre Completo
TTITLE6=Mi Tonto Amante
TTITLE7=Bruja
TTITLE8=Cuando Aparece El Sol
TTITLE9=El Monstruo
EXTD=\nYEAR: 2000  ID3G:  17
EXTT0=
EXTT1=
EXTT2=
EXTT3=
EXTT4=
EXTT5=
EXTT6=
EXTT7=
EXTT8=
EXTT9=
PLAYORDER=
